{
 "cells": [
  {
   "cell_type": "code",
   "execution_count": 1,
   "id": "328708fa",
   "metadata": {},
   "outputs": [],
   "source": [
    "%load_ext autoreload\n",
    "%autoreload 2"
   ]
  },
  {
   "cell_type": "code",
   "execution_count": 2,
   "id": "5f3a232b",
   "metadata": {},
   "outputs": [],
   "source": [
    "import numpy as np\n",
    "from sources.TSP import TSP\n",
    "from sources.TSPsampler import TSP_sampler\n",
    "import json"
   ]
  },
  {
   "cell_type": "code",
   "execution_count": 3,
   "id": "31bc6906",
   "metadata": {},
   "outputs": [],
   "source": [
    "# READ INSTANCES\n",
    "\n",
    "with open(\"data/tsp_instances.json\", \"r\", encoding=\"utf-8\") as f:\n",
    "\tinstances = json.load(f)"
   ]
  },
  {
   "cell_type": "code",
   "execution_count": 4,
   "id": "ce931ca8",
   "metadata": {},
   "outputs": [
    {
     "name": "stdout",
     "output_type": "stream",
     "text": [
      "Size 16, instance 0\n",
      "Initial solution value: 3003\n",
      "Improved solution found with value: 2943 total samples: 184\n",
      "Size 16, instance 1\n",
      "Initial solution value: 4012\n",
      "Improved solution found with value: 3982 total samples: 29\n",
      "Improved solution found with value: 3915 total samples: 49\n",
      "Improved solution found with value: 3900 total samples: 69\n",
      "Improved solution found with value: 3802 total samples: 168\n",
      "Improved solution found with value: 3777 total samples: 602\n",
      "Improved solution found with value: 3654 total samples: 620\n",
      "Size 16, instance 2\n",
      "Initial solution value: 4014\n",
      "Improved solution found with value: 4005 total samples: 33\n",
      "Improved solution found with value: 3964 total samples: 37\n",
      "Improved solution found with value: 3924 total samples: 100\n",
      "Improved solution found with value: 3884 total samples: 104\n",
      "Improved solution found with value: 3669 total samples: 133\n",
      "Improved solution found with value: 3668 total samples: 140\n",
      "Improved solution found with value: 3595 total samples: 376\n",
      "Improved solution found with value: 3532 total samples: 583\n",
      "Size 16, instance 3\n",
      "Initial solution value: 3618\n",
      "Improved solution found with value: 3614 total samples: 77\n",
      "Improved solution found with value: 3553 total samples: 95\n",
      "Improved solution found with value: 3287 total samples: 132\n",
      "Improved solution found with value: 3223 total samples: 249\n",
      "Improved solution found with value: 3220 total samples: 322\n",
      "Improved solution found with value: 3129 total samples: 440\n",
      "Size 16, instance 4\n",
      "Initial solution value: 5506\n",
      "Improved solution found with value: 4356 total samples: 1\n",
      "Improved solution found with value: 4333 total samples: 27\n",
      "Improved solution found with value: 4266 total samples: 91\n",
      "Improved solution found with value: 4115 total samples: 370\n",
      "Improved solution found with value: 4053 total samples: 1630\n",
      "Improved solution found with value: 3964 total samples: 2921\n",
      "Improved solution found with value: 3884 total samples: 2981\n",
      "Size 17, instance 0\n",
      "Initial solution value: 4544\n",
      "Improved solution found with value: 4322 total samples: 3\n",
      "Improved solution found with value: 4308 total samples: 25\n",
      "Improved solution found with value: 4300 total samples: 99\n",
      "Improved solution found with value: 4280 total samples: 176\n",
      "Improved solution found with value: 4142 total samples: 194\n",
      "Improved solution found with value: 3812 total samples: 358\n",
      "Improved solution found with value: 3772 total samples: 381\n",
      "Improved solution found with value: 3697 total samples: 595\n",
      "Improved solution found with value: 3675 total samples: 661\n",
      "Improved solution found with value: 3556 total samples: 3067\n"
     ]
    },
    {
     "ename": "KeyboardInterrupt",
     "evalue": "",
     "output_type": "error",
     "traceback": [
      "\u001b[1;31m---------------------------------------------------------------------------\u001b[0m",
      "\u001b[1;31mKeyboardInterrupt\u001b[0m                         Traceback (most recent call last)",
      "Cell \u001b[1;32mIn [4], line 17\u001b[0m\n\u001b[0;32m     15\u001b[0m greedy_sol, greedy_val \u001b[38;5;241m=\u001b[39m tsp\u001b[38;5;241m.\u001b[39msolve_greedy()\n\u001b[0;32m     16\u001b[0m T_max \u001b[38;5;241m=\u001b[39m n\u001b[38;5;241m*\u001b[39m\u001b[38;5;241m*\u001b[39m\u001b[38;5;241m4\u001b[39m\n\u001b[1;32m---> 17\u001b[0m sol, val, iterations \u001b[38;5;241m=\u001b[39m \u001b[43msampler\u001b[49m\u001b[38;5;241;43m.\u001b[39;49m\u001b[43msample_k_opt\u001b[49m\u001b[43m(\u001b[49m\u001b[43minitial_reference\u001b[49m\u001b[38;5;241;43m=\u001b[39;49m\u001b[43mgreedy_sol\u001b[49m\u001b[43m,\u001b[49m\u001b[43m \u001b[49m\u001b[43mk\u001b[49m\u001b[38;5;241;43m=\u001b[39;49m\u001b[43mk\u001b[49m\u001b[43m,\u001b[49m\u001b[43m \u001b[49m\u001b[43mT_max\u001b[49m\u001b[38;5;241;43m=\u001b[39;49m\u001b[43mT_max\u001b[49m\u001b[43m)\u001b[49m\n\u001b[0;32m     19\u001b[0m solutions[n][i][\u001b[38;5;124m\"\u001b[39m\u001b[38;5;124msol\u001b[39m\u001b[38;5;124m\"\u001b[39m] \u001b[38;5;241m=\u001b[39m sol\n\u001b[0;32m     20\u001b[0m solutions[n][i][\u001b[38;5;124m\"\u001b[39m\u001b[38;5;124mval\u001b[39m\u001b[38;5;124m\"\u001b[39m] \u001b[38;5;241m=\u001b[39m val\n",
      "File \u001b[1;32mc:\\Users\\hessmaximili\\Thesis_code\\TSP\\sources\\TSPsampler.py:45\u001b[0m, in \u001b[0;36mTSP_sampler.sample_k_opt\u001b[1;34m(self, initial_reference, k, T_max)\u001b[0m\n\u001b[0;32m     43\u001b[0m \u001b[38;5;28;01mwhile\u001b[39;00m t_total \u001b[38;5;241m<\u001b[39m T_max:\n\u001b[0;32m     44\u001b[0m     \u001b[38;5;28;01mfor\u001b[39;00m _ \u001b[38;5;129;01min\u001b[39;00m \u001b[38;5;28mrange\u001b[39m(T_max):\n\u001b[1;32m---> 45\u001b[0m         removal_indices \u001b[38;5;241m=\u001b[39m \u001b[43mnp\u001b[49m\u001b[38;5;241;43m.\u001b[39;49m\u001b[43mrandom\u001b[49m\u001b[38;5;241;43m.\u001b[39;49m\u001b[43mchoice\u001b[49m\u001b[43m(\u001b[49m\u001b[38;5;28;43mlen\u001b[39;49m\u001b[43m(\u001b[49m\u001b[43mref\u001b[49m\u001b[43m)\u001b[49m\u001b[43m,\u001b[49m\u001b[43m \u001b[49m\u001b[43msize\u001b[49m\u001b[38;5;241;43m=\u001b[39;49m\u001b[43mk\u001b[49m\u001b[43m,\u001b[49m\u001b[43m \u001b[49m\u001b[43mreplace\u001b[49m\u001b[38;5;241;43m=\u001b[39;49m\u001b[38;5;28;43;01mFalse\u001b[39;49;00m\u001b[43m)\u001b[49m\n\u001b[0;32m     46\u001b[0m         removed_edges \u001b[38;5;241m=\u001b[39m [[ref[idx], ref[(idx \u001b[38;5;241m+\u001b[39m \u001b[38;5;241m1\u001b[39m) \u001b[38;5;241m%\u001b[39m \u001b[38;5;28mlen\u001b[39m(ref)]] \u001b[38;5;28;01mfor\u001b[39;00m idx \u001b[38;5;129;01min\u001b[39;00m removal_indices]\n\u001b[0;32m     47\u001b[0m         sol_candidate \u001b[38;5;241m=\u001b[39m \u001b[38;5;28mself\u001b[39m\u001b[38;5;241m.\u001b[39mtsp\u001b[38;5;241m.\u001b[39msample_state_k_opt(reference\u001b[38;5;241m=\u001b[39mref, remove_edges\u001b[38;5;241m=\u001b[39mremoved_edges)\n",
      "\u001b[1;31mKeyboardInterrupt\u001b[0m: "
     ]
    }
   ],
   "source": [
    "# TESTS FOR K-OPT WITH EDGE REPLACEMENT\n",
    "\n",
    "k = 3\n",
    "sizes = [n for n in range(16,31)]\n",
    "\n",
    "solutions = {}\n",
    "for n in sizes:\n",
    "    solutions[n] = {}\n",
    "    for i in range(5):\n",
    "        print(f\"Size {n}, instance {i}\")\n",
    "        solutions[n][i] = {}\n",
    "        matrix = instances[str(n)][str(i)]\n",
    "        tsp = TSP(matrix)\n",
    "        sampler = TSP_sampler(tsp)\n",
    "        greedy_sol, greedy_val = tsp.solve_greedy()\n",
    "        T_max = n**4\n",
    "        sol, val, iterations = sampler.sample_k_opt(initial_reference=greedy_sol, k=k, T_max=T_max)\n",
    "        \n",
    "        solutions[n][i][\"sol\"] = sol\n",
    "        solutions[n][i][\"val\"] = val\n",
    "        solutions[n][i][\"iterations\"] = iterations\n",
    "        solutions[n][i][\"greedy_val\"] = greedy_val\n",
    "\n",
    "\n",
    "with open(f\"results/tsp_results_{k}-opt.json\", \"w\") as f:\n",
    "    json.dump(solutions, f)\n"
   ]
  },
  {
   "cell_type": "code",
   "execution_count": 5,
   "id": "dbf2c382",
   "metadata": {},
   "outputs": [
    {
     "name": "stdout",
     "output_type": "stream",
     "text": [
      "Size 16, instance 0, k=2\n",
      "Improved solution found with value: 2943 total samples: 170\n",
      "Size 16, instance 1, k=2\n",
      "Improved solution found with value: 3945 total samples: 70\n",
      "Improved solution found with value: 3679 total samples: 234\n",
      "Improved solution found with value: 3654 total samples: 333\n",
      "Size 16, instance 2, k=2\n",
      "Improved solution found with value: 3899 total samples: 12\n",
      "Improved solution found with value: 3890 total samples: 179\n",
      "Improved solution found with value: 3855 total samples: 328\n"
     ]
    },
    {
     "ename": "KeyboardInterrupt",
     "evalue": "",
     "output_type": "error",
     "traceback": [
      "\u001b[1;31m---------------------------------------------------------------------------\u001b[0m",
      "\u001b[1;31mKeyboardInterrupt\u001b[0m                         Traceback (most recent call last)",
      "Cell \u001b[1;32mIn [5], line 19\u001b[0m\n\u001b[0;32m     17\u001b[0m greedy_sol, greedy_val \u001b[38;5;241m=\u001b[39m tsp\u001b[38;5;241m.\u001b[39msolve_greedy()\n\u001b[0;32m     18\u001b[0m T_max \u001b[38;5;241m=\u001b[39m n\u001b[38;5;241m*\u001b[39m\u001b[38;5;241m*\u001b[39m\u001b[38;5;241m4\u001b[39m\n\u001b[1;32m---> 19\u001b[0m sol, val, iterations \u001b[38;5;241m=\u001b[39m \u001b[43msampler\u001b[49m\u001b[38;5;241;43m.\u001b[39;49m\u001b[43msample_node_replacement\u001b[49m\u001b[43m(\u001b[49m\u001b[43minitial_reference\u001b[49m\u001b[38;5;241;43m=\u001b[39;49m\u001b[43mgreedy_sol\u001b[49m\u001b[43m,\u001b[49m\u001b[43m \u001b[49m\u001b[43mk\u001b[49m\u001b[38;5;241;43m=\u001b[39;49m\u001b[43mk\u001b[49m\u001b[43m,\u001b[49m\u001b[43m \u001b[49m\u001b[43mT_max\u001b[49m\u001b[38;5;241;43m=\u001b[39;49m\u001b[43mT_max\u001b[49m\u001b[43m)\u001b[49m\n\u001b[0;32m     21\u001b[0m \u001b[38;5;66;03m#solutions[n][i][\"opt_val\"] = opt_val\u001b[39;00m\n\u001b[0;32m     22\u001b[0m solutions[n][k][i][\u001b[38;5;124m\"\u001b[39m\u001b[38;5;124msol\u001b[39m\u001b[38;5;124m\"\u001b[39m] \u001b[38;5;241m=\u001b[39m sol\n",
      "File \u001b[1;32mc:\\Users\\hessmaximili\\Thesis_code\\TSP\\sources\\TSPsampler.py:58\u001b[0m, in \u001b[0;36mTSP_sampler.sample_node_replacement\u001b[1;34m(self, initial_reference, k, T_max)\u001b[0m\n\u001b[0;32m     55\u001b[0m \u001b[38;5;28;01mwhile\u001b[39;00m t_total \u001b[38;5;241m<\u001b[39m T_max:\n\u001b[0;32m     56\u001b[0m     \u001b[38;5;66;03m# randomly select starting point\u001b[39;00m\n\u001b[0;32m     57\u001b[0m     i \u001b[38;5;241m=\u001b[39m np\u001b[38;5;241m.\u001b[39mrandom\u001b[38;5;241m.\u001b[39mrandint(\u001b[38;5;241m0\u001b[39m, \u001b[38;5;28mself\u001b[39m\u001b[38;5;241m.\u001b[39mn)\n\u001b[1;32m---> 58\u001b[0m     sol_candidate \u001b[38;5;241m=\u001b[39m \u001b[38;5;28;43mself\u001b[39;49m\u001b[38;5;241;43m.\u001b[39;49m\u001b[43mtsp\u001b[49m\u001b[38;5;241;43m.\u001b[39;49m\u001b[43msample_state_lk\u001b[49m\u001b[43m(\u001b[49m\u001b[43mreference\u001b[49m\u001b[38;5;241;43m=\u001b[39;49m\u001b[43mref\u001b[49m\u001b[43m,\u001b[49m\u001b[43m \u001b[49m\u001b[43mstart_index\u001b[49m\u001b[38;5;241;43m=\u001b[39;49m\u001b[43mi\u001b[49m\u001b[43m,\u001b[49m\u001b[43m \u001b[49m\u001b[43mchain_length\u001b[49m\u001b[38;5;241;43m=\u001b[39;49m\u001b[43mk\u001b[49m\u001b[43m)\u001b[49m\n\u001b[0;32m     59\u001b[0m     t_total \u001b[38;5;241m+\u001b[39m\u001b[38;5;241m=\u001b[39m \u001b[38;5;241m1\u001b[39m\n\u001b[0;32m     60\u001b[0m     \u001b[38;5;28;01mif\u001b[39;00m \u001b[38;5;28mself\u001b[39m\u001b[38;5;241m.\u001b[39mtsp\u001b[38;5;241m.\u001b[39mevaluate(sol_candidate) \u001b[38;5;241m<\u001b[39m val:\n\u001b[0;32m     61\u001b[0m         \u001b[38;5;66;03m# update reference solution\u001b[39;00m\n",
      "File \u001b[1;32mc:\\Users\\hessmaximili\\Thesis_code\\TSP\\sources\\TSP.py:202\u001b[0m, in \u001b[0;36mTSP.sample_state_lk\u001b[1;34m(self, reference, start_index, chain_length)\u001b[0m\n\u001b[0;32m    199\u001b[0m     \u001b[38;5;28;01mif\u001b[39;00m \u001b[38;5;129;01mnot\u001b[39;00m j \u001b[38;5;129;01min\u001b[39;00m result \u001b[38;5;129;01mand\u001b[39;00m reference[i] \u001b[38;5;241m!=\u001b[39m j:\n\u001b[0;32m    200\u001b[0m         remaining\u001b[38;5;241m.\u001b[39mappend(j)\n\u001b[1;32m--> 202\u001b[0m choice \u001b[38;5;241m=\u001b[39m \u001b[43mnp\u001b[49m\u001b[38;5;241;43m.\u001b[39;49m\u001b[43mrandom\u001b[49m\u001b[38;5;241;43m.\u001b[39;49m\u001b[43mchoice\u001b[49m\u001b[43m(\u001b[49m\u001b[43mremaining\u001b[49m\u001b[43m)\u001b[49m\n\u001b[0;32m    203\u001b[0m node \u001b[38;5;241m=\u001b[39m \u001b[38;5;28mint\u001b[39m(choice)\n\u001b[0;32m    204\u001b[0m result[i] \u001b[38;5;241m=\u001b[39m node\n",
      "\u001b[1;31mKeyboardInterrupt\u001b[0m: "
     ]
    }
   ],
   "source": [
    "# TESTS FOR K-OPT WITH VERTEX REPLACEMENT\n",
    "\n",
    "\n",
    "sizes = [n for n in range(16,31)]\n",
    "\n",
    "solutions = {}\n",
    "for n in sizes:\n",
    "    solutions[n] = {}\n",
    "    for k in range(2,int(n/2)):\n",
    "        solutions[n][k] = {}\n",
    "        for i in range(5):\n",
    "            print(f\"Size {n}, instance {i}, k={k}\")\n",
    "            solutions[n][k][i] = {}\n",
    "            matrix = instances[str(n)][str(i)]\n",
    "            tsp = TSP(matrix)\n",
    "            sampler = TSP_sampler(tsp)\n",
    "            greedy_sol, greedy_val = tsp.solve_greedy()\n",
    "            T_max = n**4\n",
    "            sol, val, iterations = sampler.sample_node_replacement(initial_reference=greedy_sol, k=k, T_max=T_max)\n",
    "            \n",
    "            #solutions[n][i][\"opt_val\"] = opt_val\n",
    "            solutions[n][k][i][\"sol\"] = sol\n",
    "            solutions[n][k][i][\"val\"] = val\n",
    "            solutions[n][k][i][\"iterations\"] = iterations\n",
    "            solutions[n][k][i][\"greedy_val\"] = greedy_val\n",
    "\n",
    "\n",
    "with open(f\"results/tsp_results_node_replacement.json\", \"w\") as f:\n",
    "    json.dump(solutions, f)"
   ]
  },
  {
   "cell_type": "code",
   "execution_count": null,
   "id": "c064b08a",
   "metadata": {},
   "outputs": [],
   "source": []
  }
 ],
 "metadata": {
  "kernelspec": {
   "display_name": "Python 3",
   "language": "python",
   "name": "python3"
  },
  "language_info": {
   "codemirror_mode": {
    "name": "ipython",
    "version": 3
   },
   "file_extension": ".py",
   "mimetype": "text/x-python",
   "name": "python",
   "nbconvert_exporter": "python",
   "pygments_lexer": "ipython3",
   "version": "3.10.7"
  }
 },
 "nbformat": 4,
 "nbformat_minor": 5
}
